/* XPM */
static char *result[] = {
/* columns rows colors chars-per-pixel */
"64 64 11 1 ",
"  c black",
". c #322F2F",
"X c #7F5726",
"o c #4A4545",
"O c #625D5D",
"+ c #A2763F",
"@ c #AFAEAE",
"# c #D1D0D0",
"$ c #E4E4E4",
"% c gray96",
"& c gray99",
/* pixels */
"XXXXXXXXXXXXXXXXXXXXXXXXXXXXXXXXXXXXXXXXXXXXXXXXXXXXXXXXXXXXXXXX",
"XXXXXXXXXXXXXXXXXXXXXXXXXXXXXXXXXXXXXXXXXXXXXXXXXXXXXXXXXXXXXXXX",
"++++++++++++++++++XX++++++++++++++++++++++++++++++++++++++++++++",
"++++++++++++++++++XX++++++++++++++++++++++++++++++++++++++++++++",
"++++++++++++++++++XX++++++++++++++++++++++++++++++++++++++++++++",
"++++++++++++++++++XX++++++++++++++++++++++++++++++++++++++++++++",
"XXXXXXXXXXXXXXXXXXXXXXXXXXXXXXXXXXXXXXXXXXXXXXXXXXXXXXXXXXXXXXXX",
"XXXXXXXXXXXXXXXXXXXXXXXXXXXXXXXXXXXXXXXXXXXXXXXXXXXXXXXXXXXXXXXX",
"+++++++++++++OOOOOOOOOOOOOOOOOOOOOOOOOOOOOOOOOOOO..+++++++++++++",
"+++++++++++++O@@@@@@@@@@@@@@@@@@@@@@@@@@@@@@@@@@@..+++++++++++++",
"+++++++++++++O@&&&&&&&&&&&&&&&&&&&&&&&&&&&&&&&&&@..+++++++++++++",
"+++++++++++++O@&&%%%%%%%%%%%%%%&%%%%%%%%%%%%%%&&@..+++++++++++++",
"+++++++++++++O@&&%............%&%............%&&@..+++++++++++++",
"+++++++++++++O@&&%.@@@@@@@@@@.%&%.@@@@@@@@@@.%&&@..+++++++++++++",
"XXXXXXXXXXXXXO@&&%.@%%%%%%%$@O%&%.@$%%%%%%%@O%&&@..XXXXXXXXXXXXX",
"XXXXXXXXXXXXXO@&&%.@%%%%%%%$@O%&%.@$%%%%%%%@O%&&@..XXXXXXXXXXXXX",
"+++++++++++++O@&&%.@%%%&&&%$@O%&%.@$%%%&&&%@O%&&@..+++++++++++++",
"+++++++++++++O@&&%.@%%&&&&%$@O%&%.@$%%&&&&%@O%&&@..+++++++++++++",
"+++++++++++++O@&&%.@%%&&&&%$@O%&%.@$%%&&&&%@O%&&@..+++++++++++++",
"+++++++++++++O@&&%.@%%&&&&%$@O%&%.@$%%&&&&%@O%&&@..+++++++++++++",
"+++++++++++++O@&&%.@%%&&&&%$@O%&%.@$%%&&&&%@O%&&@..+++++++++++++",
"+++++++++++++O@&&%.@%%&&&&%$@O%&%.@$%%&&&&%@O%&&@..+++++++++++++",
"XXXXXXXXXXXXXO@&&%.@%%&&&&%$@O%&%.@$%%&&&&%@O%&&@..XXXXXXXXXXXXX",
"XXXXXXXXXXXXXO@&&%.@%%&&&&%$@O%&%.@$%%&&&&%@O%&&@..XXXXXXXXXXXXX",
"+++++++++++++O@&&%.@%%&&&&%$@O%&%.@$%%&&&&%@O%&&@..+++++++++++++",
"+++++++++++++O@&&%.@%%&&&&%$@O%&%.@$%%&&&&%@O%&&@..+++++++++++++",
"+++++++++++++O@&&%.@%%&&&%%$@O%&%.@$%%&&&%%@O%&&@..+++++++++++++",
"+++++++++++++O@&&%.@%%%%%%%$@O%&%.@$%%%%%%%@O%&&@..+++++++++++++",
"+++++++++++++O@&&%.@$$$$$$$$@O%&%.@$$$$$$$$@O%&&@..+++++++++++++",
"+++++++++++++O@&&%.@@@@@@@@@@O%&%.@@@@@@@@@@O%&&@..+++++++++++++",
"XXXXXXXXXXXXXO@&&%..OOOOOOOOOO%&%..OOOOOOOOOO%&&@..XXXXXXXXXXXXX",
"XXXXXXXXXXXXXO@&&%%%%%%%%%%%%%%&%%%%%%%%%%%%%%&&@..XXXXXXXXXXXXX",
"+++++++++++++O@&&&&&&&&&&&&&&&&&&&&&&&&&&&&&&&&&@..+++++++++++++",
"+++++++++++++O@&&%%%%%%%%%%%%%%&%%%%%%%%%%%%%%%&@..+++++++++++++",
"+++++++++++++O@&&%&&&&&&&&&&&&%&%&&&&&&&&%@  @%&@..+++++++++++++",
"+++++++++++++O@&&%&&&&&&&&&&&&%&%&&&&&&&&% o. %&@..+++++++++++++",
"+++++++++++++O@&&%%%%%%%%%%%%%%&%%%%%%%%%% .o %&@..+++++++++++++",
"+++++++++++++O@&&&&&&&&&&&&&&&&&&&&&&&&&&&#  @%&@..+++++++++++++",
"XXXXXXXXXXXXXO@&&%%%%%%%%%%%%%%&%%%%%%%%%%%%%%&&@..XXXXXXXXXXXXX",
"XXXXXXXXXXXXXO@&&%............%&%............%&&@..XXXXXXXXXXXXX",
"+++++++++++++O@&&%.@@@@@@@@@@.%&%.@@@@@@@@@@.%&&@..+++++++++++++",
"+++++++++++++O@&&%.@%%%%%%%$@O%&%.@%%%%%%%$@.%&&@..+++++++++++++",
"+++++++++++++O@&&%.@%%%%%%%$@O%&%.@%%%%%%%$@O%&&@..+++++++++++++",
"+++++++++++++O@&&%.@%%%&&&%$@O%&%.@%%%&&&%$@O%&&@..+++++++++++++",
"+++++++++++++O@&&%.@%%&&&&%$@O%&%.@%%&&&&%$@O%&&@..+++++++++++++",
"+++++++++++++O@&&%.@%%&&&&%$@O%&%.@%%&&&&%$@O%&&@..+++++++++++++",
"XXXXXXXXXXXXXO@&&%.@%%&&&&%$@O%&%.@%%&&&&%$@O%&&@..XXXXXXXXXXXXX",
"XXXXXXXXXXXXXO@&&%.@%%&&&&%$@O%&%.@%%&&&&%$@O%&&@..XXXXXXXXXXXXX",
"+++++++++++++O@&&%.@%%&&&&%$@O%&%.@%%&&&&%$@O%&&@..+++++++++++++",
"+++++++++++++O@&&%.@%%&&&&%$@O%&%.@%%&&&&%$@O%&&@..+++++++++++++",
"+++++++++++++O@&&%.@%%&&&&%$@O%&%.@%%&&&&%$@O%&&@..+++++++++++++",
"+++++++++++++O@&&%.@%%&&&&%$@O%&%.@%%&&&&%$@O%&&@..+++++++++++++",
"+++++++++++++O@&&%.@%%&&&&%$@O%&%.@%%&&&&%$@O%&&@..+++++++++++++",
"+++++++++++++O@&&%.@%%&&&%%$@O%&%.@%%&&&%%$@O%&&@..+++++++++++++",
"XXXXXXXXXXXXXO@&&%.@%%%%%%%$@O%&%.@%%%%%%%$@O%&&@..XXXXXXXXXXXXX",
"XXXXXXXXXXXXXO@&&%.@$$$$$$$$@O%&%.@$$$$$$$$@O%&&@..XXXXXXXXXXXXX",
"++++++++++XX+O@&&%.@@@@@@@@@@O%&%.@@@@@@@@@@O%&&@..+++++++++++++",
"++++++++++XX+O@&&%...OOOOOOOOO%&%...OOOOOOOOO%&&@..+++++++++++++",
"++++++++++XX+O@&&%%%%%%%%%%%%%%&%%%%%%%%%%%%%%&&@..+++++++++++++",
"++++++++++XX+O@@@@@@@@@@@@@@@@@@@@@@@@@@@@@@@@@@@..+++++++++++++",
"++++++++++XX+......................................+++++++++++++",
"++++++++++XX++++++++++++++++++++++++++++++++++++++++++++++++++++",
"XXXXXXXXXXXXXXXXXXXXXXXXXXXXXXXXXXXXXXXXXXXXXXXXXXXXXXXXXXXXXXXX",
"XXXXXXXXXXXXXXXXXXXXXXXXXXXXXXXXXXXXXXXXXXXXXXXXXXXXXXXXXXXXXXXX"
};
