/* XPM */
static char *result[] = {
/* columns rows colors chars-per-pixel */
"64 64 9 1 ",
"  c black",
". c #000108",
"X c #090037",
"o c #393535",
"O c #3F3939",
"+ c #7F5726",
"@ c #50484F",
"# c #757375",
"$ c #A2763F",
/* pixels */
"++++++++++++++++++++++++++++++++++++++++++++++++++++++++++++++++",
"++++++++++++++++++++++++++++++++++++++++++++++++++++++++++++++++",
"$$$$$$$$$$$$$$$$$$++$$$$$$$$$$$$$$$$$$$$$$$$$$$$$$$$$$$$$$$$$$$$",
"$$$$$$$$$$$$$$$$$$++$$$$$$$$$$$$$$$$$$$$$$$$$$$$$$$$$$$$$$$$$$$$",
"$$$$$$$$$$$$$$$$$$++$$$$$$$$$$$$$$$$$$$$$$$$$$$$$$$$$$$$$$$$$$$$",
"$$$$$$$$$$$$$$$$$$++$$$$$$$$$$$$$$$$$$$$$$$$$$$$$$$$$$$$$$$$$$$$",
"+++++++++++++++++++++++++  ++++++++++++++++++++++  +++++++++++++",
"+++++++++++++++++++++++++  ++++++++++++++++++++++  +++++++++++++",
"$$$$$$$$$$$$$$$$$$$$$$$$$    $$$$$++$$$$$$$$$$$    $$$$$$$$$$$$$",
"$$$$$$$$$$$$$$$$$$$$$$$$$    $$$$$++$$$$$$$$$$$    $$$$$$$$$$$$$",
"$$$$$$$$$$$$$$$$$$$$$$$$$  @@  $$$++$$$$$$$$$  @@  $$$$$$$$$$$$$",
"$$$$$$$$$$$$$$$$$$$$$$$$$  @@  $$$++$$$$$$$$$  @@  $$$$$$$$$$$$$",
"$$$$$$$$$$$$$$$$$$$$$$$$$  @@oo  $++$$$$$$$  oo@@  $$$$$$$$$$$$$",
"$$$$$$$$$$$$$$$$$$$$$$$$$  @@oo  $++$$$$$$$  oo@@  $$$$$$$$$$$$$",
"+++++++++++++++++++++++++  ooooOO          OOoooo  +++++++++++++",
"+++++++++++++++++++++++++  ooooOO          OOoooo  +++++++++++++",
"$$$$$$$$$$$$$$$$$$$$$$$$++$  OOooooooooooooooOO  $$$$$$$$$$$$$$$",
"$$$$$$$$$$$$$$$$$$$$$$$$++$  OOooooooooooooooOO  $$$$$$$$$$$$$$$",
"$$$$$$$$$$$$$$$$$$$$$$$$+##  oooooooooooooooooo  ##$$$$$$$$$$$$$",
"$$$$$$$$$$$$$$$$$$$$$$$$+##  oooooooooooooooooo  ##$$$$$$$$$$$$$",
"$$$$$$$$$$$$$$$$$$$$$$$$++$##oooooooooooooooooo##$$$$$$$$$$$$$$$",
"$$$$$$$$$$$$$$$$$$$$$$$$++$##oooooooooooooooooo##$$$$$$$$$$$$$$$",
"+++++++++++++++++++++++++++..##oooooooooooooo##  +++++++++++++++",
"+++++++++++++++++++++++++++..##oooooooooooooo##  +++++++++++++++",
"$$$$$$$$$$$$$$$$$$$$$$$$$$$##  oooooooooooooo  ##$$$$$$$$$$$$$$$",
"$$$$$$$$$$$$$$$$$$$$$$$$$$$##  oooooooooooooo  ##$$$$$$$$$$$$$$$",
"$$$$$$$$$$$$$$$$$$$$$$$$$##$$$$  oooooooooo    $$##$$$$$$$$$$$$$",
"$$$$$$$$$$$$$$$$$$$$$$$$$##$$$$  oooooooooo    $$##$$$$$$$$$$$$$",
"$$$$$$$$$$$$$$$$$$$$$$$$$$$$$$$$$          $$$$$$$$$$$$$$$$$$$$$",
"$$$$$$$$$$$$$$$$$$$$$$$$$$$$$$$$$          $$$$$$$$$$$$$$$$$$$$$",
"+++++++++++++++    ++++++++++++  oooooooooo  +++++++++++++++++++",
"+++++++++++++++    ++++++++++++  oooooooooo  +++++++++++++++++++",
"$$$$$$$$$$$$$  @@@@  $$$$$$$$$$  oooooooooo  $$$$$$$$$$$$$$$$$$$",
"$$$$$$$$$$$$$  @@@@  $$$$$$$$$$  oooooooooo  $$$$$$$$$$$$$$$$$$$",
"$$$$$$$$$$$    @@OO  $$$$$$$$  OOoooooooooo@@  $$$$$$$$$$$$$$$$$",
"$$$$$$$$$$$    @@OO  $$$$$$$$  OOoooooooooo@@  $$$$$$$$$$$$$$$$$",
"$$$$$$$$$    @@ooOO  $$$$$$  @@oooooooooooo@@    $$$$$$$$$$$$$$$",
"$$$$$$$$$    @@ooOO  $$$$$$  @@oooooooooooo@@    $$$$$$$$$$$$$$$",
"+++++++++  @@oooo  ++++++  @@ooooooooooooooooOO  +++++++++++++++",
"+++++++++  @@oooo  ++++++  @@ooooooooooooooooOO  +++++++++++++++",
"$$$$$$$$$  OOoo  $$$$$$  @@ooooooooooooooooooOO  $$$$$$$$$$$$$$$",
"$$$$$$$$$  OOoo  $$$$$$  @@ooooooooooooooooooOO  $$$$$$$$$$$$$$$",
"$$$$$$$$$  OOoo  $$$$$$  @@ooooooooooooooooOO    $$$$$$$$$$$$$$$",
"$$$$$$$$$  OOoo  $$$$$$  @@ooooooooooooooooOO    $$$$$$$$$$$$$$$",
"$$$$$$$$$  @@oo  $$$$  @@oooo  OOooooooooooOO  +$$$$$$$$$$$$$$$$",
"$$$$$$$$$  @@oo  $$$$  @@oooo  OOooooooooooOO  +$$$$$$$$$$$$$$$$",
"+++++++++    oo    ++  OOoooo  OOoooooo  ooOO  +++++++++++++++++",
"+++++++++    oo    ++  OOoooo  OOoooooo  ooOO  +++++++++++++++++",
"$$$$$$$$$$$  oooo  $$  OOoooo  OOoooooo  oo    $$$$$$$$$$$$$$$$$",
"$$$$$$$$$$$  oooo  $$  OOoooo  OOoooooo  oo    $$$$$$$$$$$$$$$$$",
"$$$$$$$$$$$  @@OOoo    OOoooo  OOoooooo  oo  $$$$$$$$$$$$$$$$$$$",
"$$$$$$$$$$$  @@OOoo    OOoooo  OOoooooo  oo  $$$$$$$$$$$$$$$$$$$",
"$$$$$$$$$$$$$    oooo  OOoooo  OOoooo    oo  $$$$$$$$$$$$$$$$$$$",
"$$$$$$$$$$$$$    oooo  OOoooo  OOoooo    oo  $$$$$$$$$$$$$$$$$$$",
"+++++++++++++++++      OOOOOO  OOOO  ++  ooOO  +++++++++++++++++",
"+++++++++++++++++      OOOOOO  OOOO  ++  ooOO  +++++++++++++++++",
"$$$$$$$$$$++$$$$$$$$$        ........$$          $$$$$$$$$$$$$$$",
"$$$$$$$$$$++$$$$$$$$$        ........$$          $$$$$$$$$$$$$$$",
"$$$$$$$$$..............................................$$$$$$$$$",
"$$$$$$$$$..............................................$$$$$$$$$",
"$$$$$$$$$....XXXXXXXXXXXXXXXXXXXXXXXXXXXXXXXXXXXXXX....$$$$$$$$$",
"$$$$$$$$$....XXXXXXXXXXXXXXXXXXXXXXXXXXXXXXXXXXXXXX....$$$$$$$$$",
"+++++++++..............................................+++++++++",
"+++++++++..............................................+++++++++"
};
