/* XPM */
static char *result[] = {
/* columns rows colors chars-per-pixel */
"64 64 17 1 ",
"  c black",
". c #000108",
"X c #393535",
"o c #3F3939",
"O c #7F5726",
"+ c #50484F",
"@ c #757375",
"# c #A2763F",
"$ c #A69E06",
"% c #F7ED38",
"& c #F5EC51",
"* c #2437B3",
"= c #3545AC",
"- c #3648BB",
"; c #EDBBEA",
": c #FED9FC",
"> c white",
/* pixels */
"OOOOOOOOOOOOOOOOOOOOOOOOOOOOOOOOOOOOOOOOOOOOOOOOOOOOOOOOOOOOOOOO",
"OOOOOOOOOOOOOOOOOOOOOOOOOOOOOOOOOOOOOOOOOOOOOOOOOOOOOOOOOOOOOOOO",
"##################OO############################################",
"##################OO############################################",
"##################OO############################################",
"##################OO############################################",
"OOOOOOOOOOOOOOOOOOOOOOOOO  OOOOOOOOOOOOOOOOOOOOOO  OOOOOOOOOOOOO",
"OOOOOOOOOOOOOOOOOOOOOOOOO  OOOOOOOOOOOOOOOOOOOOOO  OOOOOOOOOOOOO",
"#########################    #####OO###########    #############",
"#########################    #####OO###########    #############",
"#########################  ::  ###OO#########  ::  #############",
"#########################  ::  ###OO#########  ::  #############",
"#########################  ::;;  #OO#######  ;;::  #############",
"#########################  ::;;  #OO#######  ;;::  #############",
"OOOOOOOOOOOOOOOOOOOOOOOOO  ::++oo          oo++::  OOOOOOOOOOOOO",
"OOOOOOOOOOOOOOOOOOOOOOOOO  ::++oo          oo++::  OOOOOOOOOOOOO",
"########################OO#  ooXXXXXXXXXXXXXXoo  ###############",
"########################OO#  ooXXXXXXXXXXXXXXoo  ###############",
"########################O@@  XX>>%%XXXXXX%%>>XX  @@#############",
"########################O@@  XX>>%%XXXXXX%%>>XX  @@#############",
"########################OO#@@XX%&$$XXXXXX$$%%XX@@###############",
"########################OO#@@XX&&$$XXXXXX$$%%XX@@###############",
"OOOOOOOOOOOOOOOOOOOOOOOOOOO..@@XXXXXX  XXXXXX@@  OOOOOOOOOOOOOOO",
"OOOOOOOOOOOOOOOOOOOOOOOOOOO..@@XXXXXX  XXXXXX@@  OOOOOOOOOOOOOOO",
"###########################@@  XXXXXXXXXXXXXX  @@###############",
"###########################@@  XXXXXXXXXXXXXX  @@###############",
"#########################@@####  XXXXXXXXXX    ##@@#############",
"#########################@@####  XXXXXXXXXX    ##@@#############",
"#################################          #####################",
"#################################          #####################",
"OOOOOOOOOOOOOOO    OOOOOOOOOOOO  XXXXXXXXXX  OOOOOOOOOOOOOOOOOOO",
"OOOOOOOOOOOOOOO    OOOOOOOOOOOO  XXXXXXXXXX  OOOOOOOOOOOOOOOOOOO",
"#############  ++++  ##########  XXXXXXXXXX  ###################",
"#############  ++++  ##########  XXXXXXXXXX  ###################",
"###########    ++oo  ########  ooXXXXXXXXXX++  #################",
"###########    ++oo  ########  ooXXXXXXXXXX++  #################",
"#########    ++XXoo  ######  ++XXXXXXXXXXXX++    ###############",
"#########    ++XXoo  ######  ++XXXXXXXXXXXX++    ###############",
"OOOOOOOOO  ++XXXX  OOOOOO  ++XXXXXXXXXXXXXXXXoo  OOOOOOOOOOOOOOO",
"OOOOOOOOO  ++XXXX  OOOOOO  ++XXXXXXXXXXXXXXXXoo  OOOOOOOOOOOOOOO",
"#########  ooXX  ######  ++XXXXXXXXXXXXXXXXXXoo  ###############",
"#########  ooXX  ######  ++XXXXXXXXXXXXXXXXXXoo  ###############",
"#########  ooXX  ######  ++XXXXXXXXXXXXXXXXoo    ###############",
"#########  ooXX  ######  ++XXXXXXXXXXXXXXXXoo    ###############",
"#########  ++XX  ####  ++XXXX  ooXXXXXXXXXXoo  O################",
"#########  ++XX  ####  ++XXXX  ooXXXXXXXXXXoo  O################",
"OOOOOOOOO    XX    OO  ooXXXX  ooXXXXXX  XXoo  OOOOOOOOOOOOOOOOO",
"OOOOOOOOO    XX    OO  ooXXXX  ooXXXXXX  XXoo  OOOOOOOOOOOOOOOOO",
"###########  XXXX  ##  ooXXXX  ooXXXXXX  XX    #################",
"###########  XXXX  ##  ooXXXX  ooXXXXXX  XX    #################",
"###########  ++ooXX    ooXXXX  ooXXXXXX  XX  ###################",
"###########  ++ooXX    ooXXXX  ooXXXXXX  XX  ###################",
"#############    XXXX  ooXXXX  ooXXXX    XX  ###################",
"#############    XXXX  ooXXXX  ooXXXX    XX  ###################",
"OOOOOOOOOOOOOOOOO      oooooo  oooo  OO  XXoo  OOOOOOOOOOOOOOOOO",
"OOOOOOOOOOOOOOOOO      oooooo  oooo  OO  XXoo  OOOOOOOOOOOOOOOOO",
"##########OO#########        ........##          ###############",
"##########OO#########        ........##          ###############",
"#########..............................................#########",
"#########..............................................#########",
"#########....----------======******======----------....#########",
"#########....----------======******======----------....#########",
"OOOOOOOOO..............................................OOOOOOOOO",
"OOOOOOOOO..............................................OOOOOOOOO"
};
