/* XPM */
static char *result[] = {
/* columns rows colors chars-per-pixel */
"64 64 17 1 ",
"  c black",
". c #000108",
"X c #393535",
"o c #3F3939",
"O c #7F5726",
"+ c #50484F",
"@ c #757375",
"# c #A2763F",
"$ c #A69E06",
"% c #F7ED38",
"& c #F5EC51",
"* c #2437B3",
"= c #3545AC",
"- c #3648BB",
"; c #EDBBEA",
": c #FED9FC",
"> c white",
/* pixels */
"OOOOOOOOOOOOOOOOOOOOOOOOOOOOOOOOOOOOOOOOOOOOOOOOOOOOOOOOOOOOOOOO",
"OOOOOOOOOOOOOOOOOOOOOOOOOOOOOOOOOOOOOOOOOOOOOOOOOOOOOOOOOOOOOOOO",
"##################OO############################################",
"##################OO############################################",
"##################OO############################################",
"##################OO############################################",
"OOOOOOOOOOOOO  OOOOOOOOOOOOOOOOOOOOOO  OOOOOOOOOOOOOOOOOOOOOOOOO",
"OOOOOOOOOOOOO  OOOOOOOOOOOOOOOOOOOOOO  OOOOOOOOOOOOOOOOOOOOOOOOO",
"#############    #################O    #########################",
"#############    #################O    #########################",
"#############  ::  ##############  ::  #########################",
"#############  ::  ##############  ::  #########################",
"#############  ::;;  ##########  ;;::  #########################",
"#############  ::;;  ##########  ;;::  #########################",
"OOOOOOOOOOOOO  ::++oo          oo++::  OOOOOOOOOOOOOOOOOOOOOOOOO",
"OOOOOOOOOOOOO  ::++oo          oo++::  OOOOOOOOOOOOOOOOOOOOOOOOO",
"###############  ooXXXXXXXXXXXXXXoo  ###########################",
"###############  ooXXXXXXXXXXXXXXoo  ###########################",
"#############@@  XX>>$$XXXXXX>>$$XX  @@#########################",
"#############@@  XX>>$$XXXXXX>>$$XX  @@#########################",
"###############@@XX%%%%XXXXXX%%%%XX@@###########################",
"###############@@XX%%%%XXXXXX%%&&XX@@###########################",
"OOOOOOOOOOOOOOO  @@XXXXXX  XXXXXX@@..OOOOOOOOOOOOOOOOOOOOOOOOOOO",
"OOOOOOOOOOOOOOO  @@XXXXXX  XXXXXX@@..OOOOOOOOOOOOOOOOOOOOOOOOOOO",
"###############@@  XXXXXXXXXXXXXX  @@###########################",
"###############@@  XXXXXXXXXXXXXX  @@###########################",
"#############@@##    XXXXXXXXXX  #OO#@@#########################",
"#############@@##    XXXXXXXXXX  #OO#@@#########################",
"#####################          ###OO############################",
"#####################          ###OO############################",
"OOOOOOOOOOOOOOOOOOO  XXXXXXXXXX  OOOOOOOOOOOO    OOOOOOOOOOOOOOO",
"OOOOOOOOOOOOOOOOOOO  XXXXXXXXXX  OOOOOOOOOOOO    OOOOOOOOOOOOOOO",
"################OO#  XXXXXXXXXX  ##########  ++++  #############",
"################OO#  XXXXXXXXXX  ##########  ++++  #############",
"################O  ++XXXXXXXXXXoo  ########  oo++    ###########",
"################O  ++XXXXXXXXXXoo  ########  oo++    ###########",
"###############    ++XXXXXXXXXXXX++  ######  ooXX++    #########",
"###############    ++XXXXXXXXXXXX++  ######  ooXX++    #########",
"OOOOOOOOOOOOOOO  ooXXXXXXXXXXXXXXXX++  OOOOOO  XXXX++  OOOOOOOOO",
"OOOOOOOOOOOOOOO  ooXXXXXXXXXXXXXXXX++  OOOOOO  XXXX++  OOOOOOOOO",
"###############  ooXXXXXXXXXXXXXXXXXX++  #####O  XXoo  #########",
"###############  ooXXXXXXXXXXXXXXXXXX++  #####O  XXoo  #########",
"###############    ooXXXXXXXXXXXXXXXX++  #####O  XXoo  #########",
"###############    ooXXXXXXXXXXXXXXXX++  #####O  XXoo  #########",
"#################  ooXXXXXXXXXXoo  XXXX++  ###O  XX++  #########",
"#################  ooXXXXXXXXXXoo  XXXX++  ###O  XX++  #########",
"OOOOOOOOOOOOOOOOO  ooXX  XXXXXXoo  XXXXoo  OO    XX    OOOOOOOOO",
"OOOOOOOOOOOOOOOOO  ooXX  XXXXXXoo  XXXXoo  OO    XX    OOOOOOOOO",
"#################    XX  XXXXXXoo  XXXXoo  ##  XXXX  ###########",
"#################    XX  XXXXXXoo  XXXXoo  ##  XXXX  ###########",
"###################  XX  XXXXXXoo  XXXXoo    XXoo++  ###########",
"###################  XX  XXXXXXoo  XXXXoo    XXoo++  ###########",
"###################  XX    XXXXoo  XXXXoo  XXXX    #############",
"###################  XX    XXXXoo  XXXXoo  XXXX    #############",
"OOOOOOOOOOOOOOOOO  ooXX  OO  oooo  oooooo      OOOOOOOOOOOOOOOOO",
"OOOOOOOOOOOOOOOOO  ooXX  OO  oooo  oooooo      OOOOOOOOOOOOOOOOO",
"##########OO###          ##........        #####################",
"##########OO###          ##........        #####################",
"#########..............................................#########",
"#########..............................................#########",
"#########....----------======******======----------....#########",
"#########....----------======******======----------....#########",
"OOOOOOOOO..............................................OOOOOOOOO",
"OOOOOOOOO..............................................OOOOOOOOO"
};
