/* XPM */
static char *e5bca8d099484a09e43f611196d3784bHAYoMeh1DjaxeU1s[] = {
/* columns rows colors chars-per-pixel */
"64 64 2 1 ",
"  c #7F5726",
". c #A2763F",
/* pixels */
"                                                                ",
"                                                                ",
"..................  ............................................",
"..................  ............................................",
"..................  ............................................",
"..................  ............................................",
"                                                                ",
"                                                                ",
"..................................  ............................",
"..................................  ............................",
"..................................  ............................",
"..................................  ............................",
"..................................  ............................",
"..................................  ............................",
"                                                                ",
"                                                                ",
"........................  ......................................",
"........................  ......................................",
"........................  ......................................",
"........................  ......................................",
"........................  ......................................",
"........................  ......................................",
"                                                                ",
"                                                                ",
"..................................  ............................",
"..................................  ............................",
"..................................  ............................",
"..................................  ............................",
"..................................  ............................",
"..................................  ............................",
"                                                                ",
"                                                                ",
"................  ..............................................",
"................  ..............................................",
"................  ..............................................",
"................  ..............................................",
"................  ..............................................",
"................  ..............................................",
"                                                                ",
"                                                                ",
"..............................................  ................",
"..............................................  ................",
"..............................................  ................",
"..............................................  ................",
"..............................................  ................",
"..............................................  ................",
"                                                                ",
"                                                                ",
"............................  ..................................",
"............................  ..................................",
"............................  ..................................",
"............................  ..................................",
"............................  ..................................",
"............................  ..................................",
"                                                                ",
"                                                                ",
"..........  ....................................................",
"..........  ....................................................",
"..........  ....................................................",
"..........  ....................................................",
"..........  ....................................................",
"..........  ....................................................",
"                                                                ",
"                                                                "
};
